<?xml version="1.0" encoding="UTF-8" standalone="no"?>
<!-- Created with Inkscape (http://www.inkscape.org/) -->
<svg
   xmlns:dc="http://purl.org/dc/elements/1.1/"
   xmlns:cc="http://creativecommons.org/ns#"
   xmlns:rdf="http://www.w3.org/1999/02/22-rdf-syntax-ns#"
   xmlns:svg="http://www.w3.org/2000/svg"
   xmlns="http://www.w3.org/2000/svg"
   xmlns:sodipodi="http://sodipodi.sourceforge.net/DTD/sodipodi-0.dtd"
   xmlns:inkscape="http://www.inkscape.org/namespaces/inkscape"
   width="16px"
   height="16px"
   id="svg2383"
   sodipodi:version="0.32"
   inkscape:version="0.46"
   sodipodi:docname="cog.svg"
   inkscape:output_extension="org.inkscape.output.svg.inkscape">
  <defs
     id="defs2385">
    <inkscape:perspective
       sodipodi:type="inkscape:persp3d"
       inkscape:vp_x="0 : 8 : 1"
       inkscape:vp_y="0 : 1000 : 0"
       inkscape:vp_z="16 : 8 : 1"
       inkscape:persp3d-origin="8 : 5.3333333 : 1"
       id="perspective2391" />
  </defs>
  <sodipodi:namedview
     id="base"
     pagecolor="#ffffff"
     bordercolor="#666666"
     borderopacity="1.0"
     inkscape:pageopacity="0.0"
     inkscape:pageshadow="2"
     inkscape:zoom="22.197802"
     inkscape:cx="8"
     inkscape:cy="8"
     inkscape:current-layer="layer1"
     showgrid="true"
     inkscape:grid-bbox="true"
     inkscape:document-units="px"
     inkscape:window-width="1074"
     inkscape:window-height="654"
     inkscape:window-x="200"
     inkscape:window-y="15">
    <inkscape:grid
       type="xygrid"
       id="grid2393" />
  </sodipodi:namedview>
  <metadata
     id="metadata2388">
    <rdf:RDF>
      <cc:Work
         rdf:about="">
        <dc:format>image/svg+xml</dc:format>
        <dc:type
           rdf:resource="http://purl.org/dc/dcmitype/StillImage" />
      </cc:Work>
    </rdf:RDF>
  </metadata>
  <g
     id="layer1"
     inkscape:label="Layer 1"
     inkscape:groupmode="layer">
    <path
       style="opacity:1;fill:#666666;fill-opacity:1;fill-rule:evenodd;stroke:none;stroke-width:0.20000000000000001;stroke-linecap:butt;stroke-linejoin:miter;stroke-miterlimit:4;stroke-dasharray:none;stroke-opacity:1"
       d="M 8 2.09375 C 4.6880001 2.09375 2 4.7551453 2 8.0625 C 2 11.369854 4.6879999 14.0625 8 14.0625 C 11.312 14.0625 14 11.369854 14 8.0625 C 14 4.7551456 11.312 2.09375 8 2.09375 z M 8.03125 6 C 9.1127056 5.9999999 10 6.8748609 10 7.96875 C 9.9999996 9.0626389 9.1127054 9.96875 8.03125 9.96875 C 6.9497948 9.9687501 6.09375 9.0626391 6.09375 7.96875 C 6.0937499 6.8748607 6.9497946 6 8.03125 6 z "
       id="path2395" />
    <path
       style="fill:#666666;fill-rule:evenodd;stroke:none;stroke-width:1px;stroke-linecap:butt;stroke-linejoin:miter;stroke-opacity:1"
       d="M 3.3787129,4.2420791 L 2.7029703,2.4400989 L 4.0544555,1.4490098 L 5.5861387,2.6653464"
       id="path2408" />
    <path
       style="fill:#666666;fill-rule:evenodd;stroke:none;stroke-width:1px;stroke-linecap:butt;stroke-linejoin:miter;stroke-opacity:1"
       d="M 6.1846411,2.6274334 L 6.4489,0.72114698 L 8.1093108,0.49353767 L 8.8766159,2.2926405"
       id="path2410" />
    <path
       style="fill:#666666;fill-rule:evenodd;stroke:none;stroke-width:1px;stroke-linecap:butt;stroke-linejoin:miter;stroke-opacity:1"
       d="M 9.4443923,2.400199 L 10.696112,0.93836492 L 12.216575,1.6433192 L 11.890996,3.5719272"
       id="path2412" />
    <path
       style="fill:#666666;fill-rule:evenodd;stroke:none;stroke-width:1px;stroke-linecap:butt;stroke-linejoin:miter;stroke-opacity:1"
       d="M 12.186504,3.9485219 L 14,3.3043231 L 14.967358,4.6728951 L 13.724481,6.183123"
       id="path2414"
       inkscape:transform-center-x="-0.49554456" />
    <path
       style="fill:#666666;fill-rule:evenodd;stroke:none;stroke-width:1px;stroke-linecap:butt;stroke-linejoin:miter;stroke-opacity:1"
       d="M 13.797361,6.7349441 L 15.662343,7.2099211 L 15.703563,8.8853525 L 13.830179,9.4474592"
       id="path2416" />
    <path
       style="fill:#666666;fill-rule:evenodd;stroke:none;stroke-width:1px;stroke-linecap:butt;stroke-linejoin:miter;stroke-opacity:1"
       d="M 13.527223,9.8968135 L 14.835484,11.308272 L 13.960428,12.737623 L 12.082029,12.192511"
       id="path2418"
       inkscape:transform-center-x="0.18084696"
       inkscape:transform-center-y="-0.0426829" />
    <path
       style="fill:#666666;fill-rule:evenodd;stroke:none;stroke-width:1px;stroke-linecap:butt;stroke-linejoin:miter;stroke-opacity:1"
       d="M 11.603515,12.620776 L 11.993328,14.5054 L 10.505189,15.27625 L 9.1793704,13.838289"
       id="path2420" />
    <path
       style="fill:#666666;fill-rule:evenodd;stroke:none;stroke-width:1px;stroke-linecap:butt;stroke-linejoin:miter;stroke-opacity:1"
       d="M 8.6218259,13.914514 L 7.8909614,15.69485 L 6.2262017,15.501601 L 5.9313266,13.568062"
       id="path2422" />
    <path
       style="fill:#666666;fill-rule:evenodd;stroke:none;stroke-width:1px;stroke-linecap:butt;stroke-linejoin:miter;stroke-opacity:1"
       d="M 5.560616,13.533188 L 4,14.65935 L 2.6881687,13.616341 L 3.4585217,11.818541"
       id="path2424" />
    <path
       style="fill:#666666;fill-rule:evenodd;stroke:none;stroke-width:1px;stroke-linecap:butt;stroke-linejoin:miter;stroke-opacity:1"
       d="M 3.1232428,11.507833 L 1.2148817,11.756674 L 0.55662355,10.215419 L 2.0890349,9"
       id="path2426" />
    <path
       style="fill:#666666;fill-rule:evenodd;stroke:none;stroke-width:1px;stroke-linecap:butt;stroke-linejoin:miter;stroke-opacity:1"
       d="M 2.079536,8 L 0.3800597,7.0969268 L 0.73673222,5.4593816 L 2.6899388,5.3568536"
       id="path2428" />
  </g>
</svg>
