<?xml version="1.0" encoding="UTF-8" standalone="no"?>
<!-- Created with Inkscape (http://www.inkscape.org/) -->
<svg
   xmlns:dc="http://purl.org/dc/elements/1.1/"
   xmlns:cc="http://creativecommons.org/ns#"
   xmlns:rdf="http://www.w3.org/1999/02/22-rdf-syntax-ns#"
   xmlns:svg="http://www.w3.org/2000/svg"
   xmlns="http://www.w3.org/2000/svg"
   xmlns:sodipodi="http://sodipodi.sourceforge.net/DTD/sodipodi-0.dtd"
   xmlns:inkscape="http://www.inkscape.org/namespaces/inkscape"
   width="16px"
   height="16px"
   id="svg2383"
   sodipodi:version="0.32"
   inkscape:version="0.46"
   sodipodi:docname="addon.svg"
   inkscape:output_extension="org.inkscape.output.svg.inkscape"
   inkscape:export-filename="/home/chris/DMDirc/src/com/dmdirc/res/addon.png"
   inkscape:export-xdpi="90"
   inkscape:export-ydpi="90">
  <defs
     id="defs2385">
    <inkscape:perspective
       sodipodi:type="inkscape:persp3d"
       inkscape:vp_x="-2.0884043 : 9.7707567 : 1"
       inkscape:vp_y="7.2770665e-14 : 881.67076 : 0"
       inkscape:vp_z="17.557879 : 9.2301627 : 1"
       inkscape:persp3d-origin="7.5545394 : 3.0047831 : 1"
       id="perspective2391" />
    <inkscape:perspective
       id="perspective3363"
       inkscape:persp3d-origin="372.04724 : 350.78739 : 1"
       inkscape:vp_z="744.09448 : 526.18109 : 1"
       inkscape:vp_y="0 : 1000 : 0"
       inkscape:vp_x="0 : 526.18109 : 1"
       sodipodi:type="inkscape:persp3d" />
  </defs>
  <sodipodi:namedview
     id="base"
     pagecolor="#ffffff"
     bordercolor="#666666"
     borderopacity="1.0"
     inkscape:pageopacity="0.0"
     inkscape:pageshadow="2"
     inkscape:zoom="31.392433"
     inkscape:cx="6.0445518"
     inkscape:cy="6.9285835"
     inkscape:current-layer="layer1"
     showgrid="true"
     inkscape:grid-bbox="true"
     inkscape:document-units="px"
     inkscape:window-width="1280"
     inkscape:window-height="956"
     inkscape:window-x="0"
     inkscape:window-y="0">
    <inkscape:grid
       type="xygrid"
       id="grid2393" />
  </sodipodi:namedview>
  <metadata
     id="metadata2388">
    <rdf:RDF>
      <cc:Work
         rdf:about="">
        <dc:format>image/svg+xml</dc:format>
        <dc:type
           rdf:resource="http://purl.org/dc/dcmitype/StillImage" />
      </cc:Work>
    </rdf:RDF>
  </metadata>
  <g
     id="layer1"
     inkscape:label="Layer 1"
     inkscape:groupmode="layer">
    <path
       sodipodi:type="arc"
       style="opacity:1;fill:#cccccc;fill-opacity:1;stroke:none;stroke-width:0.30000001;stroke-linecap:butt;stroke-linejoin:miter;stroke-miterlimit:4;stroke-dasharray:none;stroke-opacity:1"
       id="path3371"
       sodipodi:cx="7.7710395"
       sodipodi:cy="3.1834157"
       sodipodi:rx="1.6443069"
       sodipodi:ry="1.6443069"
       d="M 9.4153464,3.1834157 A 1.6443069,1.6443069 0 1 1 6.1267326,3.1834157 A 1.6443069,1.6443069 0 1 1 9.4153464,3.1834157 z"
       transform="matrix(1.4246575,0,0,1.4246575,-3.0973077,-1.8778511)" />
    <path
       style="fill:#008000;fill-rule:evenodd;stroke:#000000;stroke-width:0.2;stroke-linecap:butt;stroke-linejoin:miter;stroke-opacity:1;stroke-miterlimit:4;stroke-dasharray:none"
       d="M 1.7118812,4.1970296 L 1.7569307,14.558416 L 5.8564357,14.468317 C 5.8564357,14.468317 4.9597212,12.891432 6.2778086,11.813128 C 7.4859474,10.824771 7.3267409,10.922546 7.9628316,10.946257 C 9.0949968,10.989054 9.4312739,11.137387 9.9718681,12.173525 C 10.512462,13.209663 10.091089,14.423267 10.091089,14.423267 L 14.460891,14.513366 L 14.370792,10.909406 C 14.370792,10.909406 13.289604,11.810396 12.433663,11.630198 C 11.577723,11.45 10.766832,10.413861 10.766832,10.413861 C 10.766832,10.413861 10.181188,9.1975247 10.496535,8.5217821 C 10.811881,7.8460395 11.622772,7.1252474 11.622772,7.1252474 C 11.622772,7.1252474 13.064357,6.7648514 13.154456,6.8549504 C 13.244555,6.9450494 14.415842,7.4856435 14.415842,7.4856435 L 14.415842,4.1519801 L 9.7306932,4.1970296 C 9.7306932,4.1970296 10.90198,2.6202969 9.9108912,1.4490098 C 8.9198021,0.27772263 8.0638615,0.32277214 8.0638615,0.32277214 C 8.0638615,0.32277214 5.9014852,0.45792065 5.6762377,2.0797028 C 5.4509901,3.701485 6.3970298,4.1970296 6.3970298,4.1970296 L 1.7118812,4.1970296 z"
       id="path4103"
       sodipodi:nodetypes="cccssscccscscscccscscc" />
    <path
       style="fill:#2ca02c;fill-rule:evenodd;stroke:none;stroke-width:1px;stroke-linecap:butt;stroke-linejoin:miter;stroke-opacity:1;opacity:0.63485477"
       d="M 1.9749983,4.3729941 L 2,13 L 6.8487843,4.5175807 L 1.9749983,4.3729941 z"
       id="path4105" />
  </g>
</svg>
